<?xml version="1.0" encoding="UTF-8" ?>
<!DOCTYPE svg PUBLIC "-//W3C//DTD SVG 1.1//EN" "http://www.w3.org/Graphics/SVG/1.1/DTD/svg11.dtd">
<svg width="231pt" height="140pt" viewBox="0 0 231 140" version="1.1" xmlns="http://www.w3.org/2000/svg">
<path fill="#eb1c21" opacity="1.00" d=" M 125.07 0.00 L 127.03 0.00 C 134.54 6.19 140.90 13.64 147.93 20.36 C 138.18 20.31 128.44 20.43 118.69 20.26 C 118.55 16.27 119.54 11.83 117.21 8.27 L 116.53 8.19 C 119.32 5.40 121.96 2.44 125.07 0.00 Z" />
<path fill="#c2177d" opacity="1.00" d=" M 88.15 8.30 C 91.03 7.55 94.04 7.87 96.98 7.82 C 103.49 7.96 110.03 7.53 116.53 8.19 L 117.21 8.27 C 109.28 13.98 103.27 21.83 95.95 28.24 C 93.31 25.25 90.37 22.48 86.70 20.80 C 86.50 30.56 86.52 40.33 86.71 50.09 L 86.42 50.08 C 86.44 40.49 86.74 30.88 86.22 21.29 C 86.10 17.79 85.89 14.28 86.28 10.79 C 86.35 9.70 87.05 8.59 88.15 8.30 Z" />
<path fill="#c21957" opacity="1.00" d=" M 95.95 28.24 C 103.27 21.83 109.28 13.98 117.21 8.27 C 119.54 11.83 118.55 16.27 118.69 20.26 C 118.63 24.02 118.66 27.78 118.69 31.53 C 113.43 31.44 108.18 33.10 104.15 36.53 C 101.37 33.81 98.61 31.07 95.95 28.24 Z" />
<path fill="#f0661e" opacity="1.00" d=" M 118.69 20.26 C 128.44 20.43 138.18 20.31 147.93 20.36 C 147.51 25.07 143.39 27.81 140.26 30.79 C 137.59 33.24 135.04 35.81 132.49 38.37 C 128.92 34.46 123.93 32.12 118.69 31.53 C 118.66 27.78 118.63 24.02 118.69 20.26 Z" />
<path fill="#f58f19" opacity="1.00" d=" M 147.93 20.36 C 151.67 20.40 155.51 19.88 159.19 20.72 C 161.47 21.90 160.98 24.87 161.16 27.00 C 161.04 34.97 161.40 42.95 160.86 50.91 C 153.77 44.44 147.37 37.25 140.26 30.79 C 143.39 27.81 147.51 25.07 147.93 20.36 Z" />
<path fill="#612e8f" opacity="1.00" d=" M 70.55 36.63 C 75.83 31.57 80.74 26.14 86.22 21.29 C 86.74 30.88 86.44 40.49 86.42 50.08 C 82.88 50.01 79.32 50.01 75.81 50.51 C 75.44 50.82 74.70 51.45 74.34 51.76 L 73.76 52.23 C 70.92 49.29 67.42 46.77 65.61 43.02 C 66.47 40.37 68.68 38.55 70.55 36.63 Z" />
<path fill="#7d288f" opacity="1.00" d=" M 86.70 20.80 C 90.37 22.48 93.31 25.25 95.95 28.24 C 98.61 31.07 101.37 33.81 104.15 36.53 C 100.27 40.11 97.92 45.10 97.33 50.33 C 93.79 50.29 90.25 50.21 86.71 50.09 C 86.52 40.33 86.50 30.56 86.70 20.80 Z" />
<path fill="#ffc50a" opacity="1.00" d=" M 132.49 38.37 C 135.04 35.81 137.59 33.24 140.26 30.79 C 147.37 37.25 153.77 44.44 160.86 50.91 L 161.72 51.71 C 161.03 51.83 159.67 52.07 158.98 52.18 C 155.56 52.58 152.11 52.61 148.69 52.27 C 145.65 49.40 141.26 50.37 137.48 50.20 C 136.95 45.87 135.29 41.72 132.49 38.37 Z" />
<path fill="#c21957" opacity="1.00" d=" M 105.82 37.93 C 109.46 35.14 113.89 33.80 118.44 33.64 C 118.60 34.31 118.91 35.65 119.07 36.32 C 114.85 36.20 110.65 37.44 107.30 40.04 C 106.93 39.51 106.19 38.46 105.82 37.93 Z" />
<path fill="#f0661e" opacity="1.00" d=" M 118.44 33.64 C 123.20 34.31 127.66 36.42 130.98 39.93 C 130.48 40.35 129.49 41.19 128.99 41.61 C 126.33 38.82 122.79 37.18 119.07 36.32 C 118.91 35.65 118.60 34.31 118.44 33.64 Z" />
<path fill="#7d288f" opacity="1.00" d=" M 99.58 50.88 C 99.92 45.91 102.24 41.34 105.82 37.93 C 106.19 38.46 106.93 39.51 107.30 40.04 C 104.65 42.62 103.17 46.04 102.07 49.50 C 101.45 49.85 100.20 50.54 99.58 50.88 Z" />
<path fill="#ffc50a" opacity="1.00" d=" M 128.99 41.61 C 129.49 41.19 130.48 40.35 130.98 39.93 C 133.30 43.11 134.90 46.79 135.22 50.74 C 134.58 50.47 133.30 49.91 132.65 49.64 C 131.78 46.82 130.75 44.01 128.99 41.61 Z" />
<path fill="#050505" opacity="1.00" d=" M 110.88 45.83 C 112.66 45.11 114.55 44.78 116.45 44.60 C 116.41 46.55 116.43 48.53 117.06 50.40 C 118.78 48.82 119.00 46.66 117.83 44.66 C 119.67 44.86 121.50 45.09 123.32 45.41 C 119.67 47.88 117.78 52.19 118.17 56.55 C 119.54 57.09 120.90 57.67 122.24 58.30 C 119.05 58.86 115.79 58.93 112.58 58.48 C 113.94 57.65 115.45 57.15 116.91 56.57 C 117.15 53.12 115.74 50.00 114.04 47.11 C 113.25 46.79 111.67 46.15 110.88 45.83 Z" />
<path fill="#3a2e8f" opacity="1.00" d=" M 75.81 50.51 C 79.32 50.01 82.88 50.01 86.42 50.08 L 86.71 50.09 C 90.25 50.21 93.79 50.29 97.33 50.33 C 97.20 55.64 98.95 60.90 102.39 64.97 C 99.95 67.48 97.54 70.01 95.04 72.44 C 87.96 65.73 81.10 58.79 74.34 51.76 C 74.70 51.45 75.44 50.82 75.81 50.51 Z" />
<path fill="#3a2e8f" opacity="1.00" d=" M 99.58 50.88 C 100.20 50.54 101.45 49.85 102.07 49.50 C 101.93 53.87 103.04 58.28 105.82 61.72 C 105.30 62.11 104.27 62.90 103.75 63.29 C 101.14 59.69 99.38 55.39 99.58 50.88 Z" />
<path fill="#8ac73a" opacity="1.00" d=" M 132.65 49.64 C 133.30 49.91 134.58 50.47 135.22 50.74 C 135.43 56.15 133.02 61.29 129.23 65.05 C 128.72 64.64 127.69 63.82 127.18 63.42 C 131.02 59.93 132.89 54.78 132.65 49.64 Z" />
<path fill="#8ac73a" opacity="1.00" d=" M 137.48 50.20 C 141.26 50.37 145.65 49.40 148.69 52.27 C 148.40 62.31 148.56 72.36 148.67 82.40 C 144.36 81.01 141.50 77.44 138.44 74.35 C 135.86 71.78 133.26 69.24 130.68 66.68 C 135.24 62.48 137.62 56.36 137.48 50.20 Z" />
<path fill="#26338f" opacity="1.00" d=" M 73.76 52.23 L 74.34 51.76 C 81.10 58.79 87.96 65.73 95.04 72.44 C 91.92 75.33 89.02 78.45 86.63 81.98 C 96.45 82.77 106.32 82.30 116.16 82.25 L 116.15 82.73 C 106.46 82.77 96.77 82.65 87.08 82.84 C 83.41 82.84 79.70 83.14 76.05 82.61 C 73.92 82.30 73.79 79.71 73.72 78.02 C 73.64 69.42 73.71 60.82 73.76 52.23 Z" />
<path fill="#f5eb11" opacity="1.00" d=" M 158.98 52.18 C 159.67 52.07 161.03 51.83 161.72 51.71 C 164.05 54.09 166.78 56.17 168.59 58.99 C 169.76 61.11 167.78 63.01 166.45 64.41 C 160.58 70.21 154.83 76.14 148.86 81.84 C 148.58 72.06 148.72 62.28 148.73 52.50 C 152.15 52.63 155.59 52.76 158.98 52.18 Z" />
<path fill="#0e5fa4" opacity="0.93" d=" M 103.75 63.29 C 104.27 62.90 105.30 62.11 105.82 61.72 C 108.53 64.41 112.05 65.95 115.68 66.94 C 115.86 67.59 116.22 68.90 116.40 69.55 C 111.57 69.00 107.11 66.79 103.75 63.29 Z" />
<path fill="#31ad90" opacity="0.95" d=" M 115.68 66.94 C 119.78 66.95 123.83 65.81 127.18 63.42 C 127.69 63.82 128.72 64.64 129.23 65.05 C 125.61 68.03 121.06 69.49 116.40 69.55 C 116.22 68.90 115.86 67.59 115.68 66.94 Z" />
<path fill="#0f66b0" opacity="1.00" d=" M 102.39 64.97 C 105.99 68.81 110.96 71.11 116.17 71.69 C 116.19 75.21 116.21 78.73 116.16 82.25 C 106.32 82.30 96.45 82.77 86.63 81.98 C 89.02 78.45 91.92 75.33 95.04 72.44 C 97.54 70.01 99.95 67.48 102.39 64.97 Z" />
<path fill="#33b899" opacity="1.00" d=" M 116.17 71.69 C 121.42 71.84 126.66 70.09 130.68 66.68 C 133.26 69.24 135.86 71.78 138.44 74.35 C 132.07 81.65 124.80 88.08 118.22 95.19 C 118.02 95.38 117.63 95.76 117.43 95.95 C 116.08 91.67 115.96 87.17 116.15 82.73 L 116.16 82.25 C 116.21 78.73 116.19 75.21 116.17 71.69 Z" />
<path fill="#17ab4a" opacity="1.00" d=" M 138.44 74.35 C 141.50 77.44 144.36 81.01 148.67 82.40 C 148.64 86.02 149.12 89.73 148.32 93.30 C 147.49 95.45 144.82 95.24 142.94 95.34 C 134.70 95.31 126.46 95.39 118.22 95.19 C 124.80 88.08 132.07 81.65 138.44 74.35 Z" />
<path fill="#02a1c7" opacity="1.00" d=" M 87.08 82.84 C 96.77 82.65 106.46 82.77 116.15 82.73 C 115.96 87.17 116.08 91.67 117.43 95.95 C 114.67 98.39 112.49 101.67 109.08 103.27 C 106.91 103.28 105.47 101.38 103.99 100.06 C 98.41 94.26 92.47 88.82 87.08 82.84 Z" />
<path fill="#050505" opacity="1.00" d=" M 37.28 110.18 C 38.78 105.39 45.39 106.49 49.07 107.92 L 50.01 109.20 C 53.60 106.31 58.53 107.01 62.80 107.36 C 65.86 110.17 60.75 111.50 58.93 112.88 C 56.75 116.39 54.98 120.18 53.43 124.01 C 52.91 127.68 52.94 131.53 53.73 135.17 C 56.20 135.22 59.10 134.52 60.78 136.88 C 60.62 137.36 60.28 138.33 60.11 138.81 C 54.29 139.42 48.40 138.78 42.56 139.32 C 42.22 138.65 41.52 137.29 41.17 136.62 C 43.82 135.70 46.60 135.30 49.39 135.14 C 49.81 130.71 50.87 125.70 48.20 121.75 C 46.70 119.19 45.54 116.45 44.22 113.80 C 43.21 110.91 39.57 111.37 37.28 110.18 M 49.41 109.98 C 48.81 110.99 48.21 111.99 47.60 112.99 C 48.64 115.07 49.80 117.09 51.09 119.02 C 53.20 116.70 54.50 113.83 55.31 110.83 C 53.36 110.41 51.40 110.04 49.41 109.98 Z" />
<path fill="#050505" opacity="1.00" d=" M 93.32 107.47 C 97.35 106.98 101.49 107.22 105.48 107.90 C 109.02 109.23 111.81 112.31 113.02 115.87 C 115.05 122.25 115.01 129.60 111.44 135.43 C 108.72 139.14 103.73 139.59 99.51 140.00 L 97.45 140.00 C 95.55 139.86 93.64 139.68 91.74 139.52 C 91.55 138.57 91.36 137.62 91.16 136.67 C 92.35 136.07 93.56 135.49 94.69 134.76 C 94.63 128.17 94.81 121.50 94.03 114.94 C 93.97 112.61 91.27 112.14 89.79 110.96 C 90.80 109.68 91.50 107.73 93.32 107.47 M 98.47 113.09 C 98.68 119.74 98.27 126.39 98.30 133.05 C 97.84 134.80 99.68 135.39 101.01 135.68 C 104.64 135.93 108.57 133.68 109.63 130.08 C 111.45 124.95 110.83 119.04 108.31 114.25 C 105.64 111.61 101.75 112.41 98.47 113.09 Z" />
<path fill="#050505" opacity="1.00" d=" M 117.89 110.77 C 119.83 105.81 125.94 107.38 130.07 107.43 C 135.15 107.23 139.50 111.22 141.08 115.82 C 143.10 122.23 143.08 129.61 139.51 135.47 C 136.89 138.94 132.22 139.56 128.19 140.00 L 125.48 140.00 C 123.59 139.87 121.71 139.68 119.83 139.52 C 119.63 138.57 119.42 137.62 119.20 136.67 C 120.40 136.08 121.63 135.53 122.76 134.82 C 122.78 127.67 122.82 120.47 121.92 113.36 C 120.56 112.52 119.16 111.73 117.89 110.77 M 126.65 112.84 C 126.60 120.13 126.46 127.42 126.32 134.71 C 130.15 136.80 135.26 135.09 137.25 131.26 C 139.57 125.91 139.18 119.47 136.44 114.35 C 133.89 111.63 129.93 112.51 126.65 112.84 Z" />
<path fill="#050505" opacity="1.00" d=" M 185.37 107.57 C 187.78 107.48 190.38 107.28 192.59 108.49 C 193.85 112.00 193.48 115.90 193.08 119.55 C 190.84 118.44 189.99 116.09 189.17 113.91 C 189.47 113.08 190.06 111.44 190.36 110.61 C 187.96 109.53 185.45 110.01 183.05 110.79 C 182.94 116.86 183.72 122.90 183.53 128.96 C 183.43 130.77 183.56 132.74 184.74 134.21 C 186.50 135.27 191.19 134.78 188.87 137.80 C 184.20 138.37 179.45 139.56 174.73 138.88 C 173.17 135.66 177.75 135.12 179.83 134.49 C 180.81 126.56 179.13 118.60 180.15 110.66 C 177.67 110.46 174.58 109.30 172.58 111.34 C 171.85 114.23 172.72 117.69 170.34 119.96 C 169.57 115.90 168.51 111.43 170.65 107.60 C 175.55 107.69 180.46 107.88 185.37 107.57 Z" />
<path fill="#050505" opacity="1.00" d=" M 73.58 107.98 C 74.82 107.84 76.07 107.75 77.32 107.70 C 79.17 108.28 79.62 110.37 79.91 112.04 C 81.08 119.78 83.23 127.36 83.84 135.19 C 85.56 136.19 87.30 137.14 89.03 138.13 C 87.27 138.78 85.53 139.46 83.73 140.00 L 82.26 140.00 C 80.88 139.53 79.54 138.94 78.19 138.41 C 79.43 136.87 80.68 135.34 81.92 133.79 C 79.54 129.39 72.30 129.78 71.08 134.91 C 72.32 136.21 73.57 137.51 74.78 138.84 C 70.76 139.28 66.52 140.19 62.72 138.30 C 64.33 137.35 65.99 136.51 67.63 135.64 C 70.43 126.58 70.52 116.98 73.58 107.98 M 75.30 117.29 C 73.83 120.51 74.00 124.16 73.69 127.61 C 75.40 127.43 77.13 127.27 78.78 126.78 C 78.58 123.54 78.21 120.15 76.78 117.21 C 76.41 117.23 75.67 117.27 75.30 117.29 Z" />
<path fill="#050505" opacity="1.00" d=" M 154.54 107.99 C 156.36 108.07 159.03 106.82 159.97 109.05 C 160.66 110.23 160.81 111.63 161.08 112.95 C 162.21 120.38 164.29 127.66 164.83 135.18 C 166.55 136.18 168.29 137.16 170.02 138.16 C 168.26 138.80 166.51 139.47 164.71 140.00 L 163.27 140.00 C 161.89 139.52 160.54 138.94 159.19 138.40 C 160.44 136.86 161.70 135.31 162.94 133.75 C 161.98 132.81 161.10 131.81 160.03 131.00 C 157.90 130.72 155.77 131.15 153.66 131.37 C 153.23 132.64 152.80 133.90 152.37 135.17 C 153.51 136.38 154.61 137.63 155.73 138.87 C 151.72 139.31 147.51 140.11 143.69 138.34 C 145.32 137.38 146.98 136.49 148.65 135.61 C 151.42 126.57 151.52 116.98 154.54 107.99 M 156.29 117.34 C 154.75 120.52 154.99 124.18 154.66 127.61 C 156.40 127.43 158.17 127.26 159.86 126.74 C 159.54 123.50 159.05 120.20 157.86 117.15 C 157.47 117.20 156.68 117.29 156.29 117.34 Z" />
</svg>
